<?xml version="1.0" standalone="no"?><!DOCTYPE svg PUBLIC "-//W3C//DTD SVG 1.1//EN" "http://www.w3.org/Graphics/SVG/1.1/DTD/svg11.dtd"><svg class="icon" width="200px" height="200.00px" viewBox="0 0 1024 1024" version="1.1" xmlns="http://www.w3.org/2000/svg"><path d="M238.08 883.2c-5.12 0-12.8-2.56-15.36-7.68-7.68-7.68-7.68-23.04 0-33.28l547.84-547.84c7.68-7.68 23.04-7.68 33.28 0 7.68 7.68 7.68 23.04 0 33.28L253.44 875.52c-2.56 5.12-10.24 7.68-15.36 7.68z" fill="#333333" /><path d="M785.92 883.2c-5.12 0-12.8-2.56-15.36-7.68L222.72 327.68c-7.68-7.68-7.68-23.04 0-33.28 7.68-7.68 23.04-7.68 33.28 0l547.84 547.84c7.68 7.68 7.68 23.04 0 33.28-5.12 5.12-12.8 7.68-17.92 7.68z" fill="#333333" /></svg>