<?xml version="1.0" standalone="no"?><!DOCTYPE svg PUBLIC "-//W3C//DTD SVG 1.1//EN" "http://www.w3.org/Graphics/SVG/1.1/DTD/svg11.dtd"><svg class="icon" width="200px" height="199.80px" viewBox="0 0 1025 1024" version="1.1" xmlns="http://www.w3.org/2000/svg"><path d="M460.8 516.654545C314.181818 367.709091 172.218182 228.072727 32.581818 88.436364-2.327273 53.527273-9.309091 32.581818 13.963636 11.636364c20.945455-18.618182 39.563636-13.963636 74.472728 20.945454 132.654545 132.654545 262.981818 265.309091 395.636363 395.636364 9.309091 9.309091 16.290909 20.945455 30.254546 39.563636 18.618182-25.6 32.581818-41.890909 46.545454-58.181818 125.672727-125.672727 251.345455-253.672727 379.345455-379.345455 9.309091-9.309091 16.290909-20.945455 25.6-23.272727 16.290909-4.654545 39.563636-6.981818 46.545454 2.327273 9.309091 11.636364 6.981818 32.581818 4.654546 48.872727 0 9.309091-13.963636 16.290909-20.945455 23.272727C851.781818 225.745455 712.145455 367.709091 567.854545 512c20.945455 23.272727 41.890909 44.218182 62.836364 65.163636 121.018182 121.018182 242.036364 242.036364 365.381818 363.054546l9.309091 9.309091c18.618182 18.618182 30.254545 39.563636 6.981818 60.509091-23.272727 23.272727-44.218182 11.636364-65.163636-6.981819L546.909091 602.763636c-11.636364-11.636364-18.618182-23.272727-30.254546-37.236363-16.290909 16.290909-27.927273 25.6-37.236363 34.909091-132.654545 132.654545-265.309091 265.309091-400.290909 397.963636-6.981818 6.981818-13.963636 16.290909-20.945455 18.618182-16.290909 2.327273-37.236364 2.327273-46.545454-4.654546-9.309091-9.309091-6.981818-32.581818-4.654546-46.545454 2.327273-9.309091 13.963636-18.618182 23.272727-25.6l395.636364-395.636364c11.636364-11.636364 23.272727-18.618182 34.909091-27.927273z" /></svg>